<svg aria-hidden="true" style="position: absolute; width: 0; height: 0; overflow: hidden;" version="1.1" xmlns="http://www.w3.org/2000/svg" xmlns:xlink="http://www.w3.org/1999/xlink">
<defs>
<symbol id="icon-pin" viewBox="0 0 32 32">
<title>pin</title>
<path d="M26.98 19.48c-0.5-2.327-3.123-4.675-5.347-5.5l-0.725-6.597 1.993-2.989c0.209-0.315 0.229-0.717 0.049-1.049-0.179-0.333-0.523-0.537-0.9-0.537h-12.187c-0.379 0-0.723 0.205-0.901 0.537-0.179 0.333-0.16 0.737 0.051 1.051l1.997 2.996-0.645 6.591c-2.224 0.827-4.844 3.173-5.339 5.488-0.053 0.213-0.021 0.539 0.176 0.792 0.137 0.176 0.405 0.387 0.907 0.387h5.411l3.872 8.949c0.104 0.245 0.347 0.403 0.611 0.403s0.507-0.157 0.613-0.403l3.871-8.951h5.409c0.501 0 0.768-0.208 0.907-0.381 0.195-0.251 0.229-0.579 0.18-0.787z"></path>
</symbol>
<symbol id="icon-search" viewBox="0 0 32 32">
<title>search</title>
<path d="M28.707 27.293l-4.88-4.88c1.767-2.093 2.84-4.795 2.84-7.747 0-6.627-5.373-12-12-12s-12 5.373-12 12 5.373 12 12 12c2.953 0 5.653-1.072 7.744-2.84l4.88 4.88c0.196 0.195 0.453 0.293 0.707 0.293s0.513-0.097 0.707-0.293c0.393-0.391 0.393-1.023 0.003-1.413zM4.667 14.667c0-5.513 4.487-10 10-10s10 4.487 10 10-4.487 10-10 10-10-4.487-10-10z"></path>
</symbol>
<symbol id="icon-arrow-down" viewBox="0 0 32 32">
<title>arrow-down</title>
<path d="M26.943 10.863c-0.52-0.52-1.364-0.52-1.885 0l-9.057 9.057-9.057-9.057c-0.52-0.52-1.364-0.52-1.885 0-0.52 0.52-0.52 1.364 0 1.885l10 10c0.26 0.261 0.6 0.392 0.943 0.392s0.683-0.131 0.943-0.391l10-10c0.52-0.52 0.52-1.363 0-1.884z"></path>
</symbol>
<symbol id="icon-calendar" viewBox="0 0 32 32">
<title>calendar</title>
<path d="M26.277 2.667h-20.555c-1.685 0-3.056 1.371-3.056 3.056v20.555c0 1.685 1.371 3.056 3.056 3.056h20.555c1.685 0 3.056-1.371 3.056-3.056v-20.555c0-1.685-1.371-3.056-3.056-3.056zM27.333 26.277c0 0.583-0.473 1.056-1.056 1.056h-20.555c-0.583 0-1.056-0.473-1.056-1.056v-17.72c0-0.583 0.472-1.053 1.053-1.056h20.56c0.581 0 1.053 0.473 1.053 1.053v17.725z"></path>
<path d="M11.089 11.667c0 0.946-0.767 1.713-1.713 1.713s-1.713-0.767-1.713-1.713c0-0.946 0.767-1.713 1.713-1.713s1.713 0.767 1.713 1.713z"></path>
<path d="M11.089 17.541c0 0.946-0.767 1.713-1.713 1.713s-1.713-0.767-1.713-1.713c0-0.946 0.767-1.713 1.713-1.713s1.713 0.767 1.713 1.713z"></path>
<path d="M24.337 11.667c0 0.946-0.767 1.713-1.713 1.713s-1.713-0.767-1.713-1.713c0-0.946 0.767-1.713 1.713-1.713s1.713 0.767 1.713 1.713z"></path>
<path d="M24.337 17.541c0 0.946-0.767 1.713-1.713 1.713s-1.713-0.767-1.713-1.713c0-0.946 0.767-1.713 1.713-1.713s1.713 0.767 1.713 1.713z"></path>
<path d="M17.713 11.667c0 0.946-0.767 1.713-1.713 1.713s-1.713-0.767-1.713-1.713c0-0.946 0.767-1.713 1.713-1.713s1.713 0.767 1.713 1.713z"></path>
<path d="M17.713 17.541c0 0.946-0.767 1.713-1.713 1.713s-1.713-0.767-1.713-1.713c0-0.946 0.767-1.713 1.713-1.713s1.713 0.767 1.713 1.713z"></path>
<path d="M11.089 23.315c0 0.946-0.767 1.713-1.713 1.713s-1.713-0.767-1.713-1.713c0-0.946 0.767-1.713 1.713-1.713s1.713 0.767 1.713 1.713z"></path>
<path d="M17.713 23.315c0 0.946-0.767 1.713-1.713 1.713s-1.713-0.767-1.713-1.713c0-0.946 0.767-1.713 1.713-1.713s1.713 0.767 1.713 1.713z"></path>
</symbol>
<symbol id="icon-globe" viewBox="0 0 32 32">
<title>globe</title>
<path d="M10.333 14.777c-0.552 0-1-0.448-1-1 0-3.92 2.991-7.111 6.667-7.111 0.552 0 1 0.448 1 1s-0.448 1-1 1c-2.573 0-4.667 2.293-4.667 5.111 0 0.552-0.448 1-1 1z"></path>
<path d="M27.667 13.777c0-6.68-5.233-12.111-11.667-12.111s-11.667 5.432-11.667 12.111c0 6.14 4.427 11.216 10.14 11.996l-2.267 2.44c-0.183 0.193-0.231 0.476-0.124 0.72 0.107 0.243 0.347 0.4 0.613 0.4h6.609c0.264 0 0.504-0.157 0.609-0.4 0.107-0.244 0.059-0.527-0.123-0.72l-2.267-2.44c5.713-0.78 10.14-5.856 10.14-11.996zM16 23.889c-5.331 0-9.667-4.536-9.667-10.112s4.336-10.111 9.667-10.111 9.667 4.533 9.667 10.111-4.336 10.112-9.667 10.112z"></path>
</symbol>
<symbol id="icon-verified" viewBox="0 0 32 32">
<title>verified</title>
<path d="M30 16.667c0-2.107-1.167-3.933-2.864-4.8 0.205-0.58 0.317-1.207 0.317-1.867 0-2.947-2.28-5.331-5.091-5.331-0.627 0-1.227 0.112-1.781 0.333-0.824-1.783-2.568-3.003-4.581-3.003s-3.755 1.223-4.583 3c-0.553-0.22-1.155-0.333-1.781-0.333-2.813 0-5.091 2.387-5.091 5.333 0 0.659 0.111 1.285 0.316 1.867-1.696 0.867-2.863 2.691-2.863 4.8 0 1.993 1.043 3.731 2.589 4.648-0.027 0.227-0.043 0.453-0.043 0.685 0 2.947 2.277 5.333 5.091 5.333 0.627 0 1.227-0.115 1.78-0.333 0.827 1.779 2.568 3 4.583 3 2.016 0 3.757-1.221 4.583-3 0.553 0.217 1.153 0.331 1.781 0.331 2.813 0 5.091-2.387 5.091-5.333 0-0.232-0.016-0.459-0.044-0.684 1.544-0.916 2.591-2.653 2.591-4.645zM21.179 12.221l-5.779 8.667c-0.193 0.289-0.509 0.445-0.833 0.445-0.191 0-0.384-0.053-0.555-0.168l-0.153-0.125-3.22-3.22c-0.391-0.391-0.391-1.024 0-1.413s1.024-0.392 1.413 0l2.36 2.356 5.1-7.653c0.307-0.46 0.928-0.581 1.387-0.276 0.461 0.307 0.587 0.928 0.28 1.387z"></path>
</symbol>
<symbol id="icon-more" viewBox="0 0 32 32">
<title>more</title>
<path d="M25.853 19.843c-2.107 0-3.816-1.711-3.816-3.813s1.711-3.816 3.813-3.816 3.816 1.711 3.816 3.813-1.712 3.816-3.813 3.816zM25.853 14.212c-1 0-1.816 0.813-1.816 1.813s0.813 1.813 1.813 1.813 1.816-0.813 1.816-1.813-0.813-1.813-1.813-1.813zM16 19.843c-2.104 0-3.813-1.711-3.813-3.813s1.707-3.819 3.813-3.819 3.813 1.709 3.813 3.813-1.709 3.816-3.813 3.816zM16 14.212c-1 0-1.813 0.813-1.813 1.813s0.813 1.816 1.813 1.816 1.813-0.813 1.813-1.813-0.813-1.817-1.813-1.817zM6.147 19.843c-2.103 0-3.813-1.711-3.813-3.813s1.712-3.816 3.813-3.816 3.816 1.711 3.816 3.813-1.711 3.816-3.813 3.816zM6.147 14.212c-1 0-1.813 0.813-1.813 1.813s0.813 1.813 1.813 1.813 1.816-0.813 1.816-1.813-0.813-1.813-1.813-1.813z"></path>
</symbol>
<symbol id="icon-twitter" viewBox="0 0 32 32">
<title>twitter</title>
<path d="M31.524 6.583c-1.113 0.493-2.309 0.827-3.567 0.977 1.283-0.768 2.267-1.987 2.731-3.437-1.2 0.712-2.529 1.229-3.944 1.507-1.133-1.205-2.747-1.96-4.533-1.96-3.429 0-6.211 2.781-6.211 6.213 0 0.485 0.056 0.957 0.16 1.413-5.164-0.26-9.739-2.733-12.803-6.491-0.533 0.92-0.84 1.987-0.84 3.123 0 2.155 1.097 4.057 2.763 5.171-1.019-0.033-1.976-0.312-2.813-0.777v0.080c0 3.009 2.14 5.52 4.983 6.091-0.523 0.141-1.071 0.216-1.636 0.216-0.4 0-0.791-0.037-1.169-0.109 0.791 2.467 3.084 4.264 5.803 4.312-2.127 1.667-4.805 2.66-7.715 2.66-0.501 0-0.996-0.029-1.483-0.087 2.749 1.764 6.013 2.791 9.52 2.791 11.427 0 17.673-9.464 17.673-17.672 0-0.267-0.007-0.536-0.019-0.803 1.213-0.877 2.267-1.969 3.097-3.213z"></path>
</symbol>
<symbol id="icon-f30d" viewBox="0 0 32 32">
<title>f30d</title>
<path fill="#88c9f9" style="fill: var(--color1, #88c9f9)" d="M32 16c0 8.837-7.163 16-16 16s-16-7.163-16-16c0-8.837 7.163-16 16-16s16 7.163 16 16z"></path>
<path fill="#5c913b" style="fill: var(--color2, #5c913b)" d="M22.859 1.561c-0.908 0.505-1.664 1.358-2.692 1.050-1.667-0.5-3.889-1.611-5.333-0.222s-1.778 2.667 0 2.612 3-2.167 3.889-1.278 0.666 1.612-1.444 1.889-4.389 0.612-5.612 0.612-1.5 0.722-0.667 1.5-0.5 0.833-1.889 1.611 0.333 1.111 1.5 1.778 2.055-0.167 2.556-1.278 2.65-2.444 3.547-2.277c0.898 0.167 0.898 0.612 0.731 1.388s0.667 0.556 0.722-0.333 1.056-1.556 1.833-1.611 1.444 1.056 0.556 1.611-1.778 1-0.667 1.278 1.889 1.723 0.612 2.333-3.5 1-4.5 0.5-3.278-1.222-3.889-0.834-0.944 0.791-1.667 1.062c-0.722 0.271-3.667 1.604-3.723 3.327s-0.11 3.668 1.056 3.723 4-0.722 4.889-1.444 2.111-0.556 2.5 0.277 0.111 1.333-0.277 2.667 0.254 2 0.877 3.166c0.623 1.166 1.123 1.833 1.123 2.667s0.889 1.667 2.222 0.277 2.556-4.111 3.111-5.111 1-3.222 1.667-3.667 1.723-1.5 0.944-1.333-2.333-0.055-2.722-1.166-2.055-3.222-1.278-3.444 1.667 1.236 2 1.924c0.333 0.688 0.778 1.521 1.444 1.743s2.111-1.487 2.556-1.743c0.444-0.257 0.111-1.312-0.778-1.201s-2.055 0-2.055-0.555 1.111-1.278 2-1.111 1.556 0.444 2.111 1.111 1.667 1.889 2.111 2.667 0.778 0.889 1-0.5c0.148-0.923 0.344-1.43 0.524-1.975-0.9-5.181-4.284-9.496-8.888-11.687z"></path>
</symbol>
<symbol id="icon-f30e" viewBox="0 0 32 32">
<title>f30e</title>
<path fill="#88c9f9" style="fill: var(--color1, #88c9f9)" d="M32 16c0 8.837-7.163 16-16 16s-16-7.163-16-16c0-8.837 7.163-16 16-16s16 7.163 16 16z"></path>
<path fill="#5c913b" style="fill: var(--color2, #5c913b)" d="M26.782 21.109c-0.904-0.347-0.743-0.22-1.3-1.405s-0.895-1.565-2.148-1.704c-1.254-0.138-1.207-0.040-1.556-0.667s-1.762 0.17-2.667 0.519c-0.908 0.348-0.684 1.108-0.963 1.036-0.28-0.069-0.984-0.25-1.683-0.806-0.697-0.558 0.518-0.994 0.868-1.341 0.349-0.349-0.658-0.159-1.007-0.37-0.349-0.208-0.974 0.419-1.532-0.14-0.558-0.557-0.209-1.394-0.278-2.091s0.905-0.836 1.532-0.976c0.627-0.139 1.114 0.001 1.114 0.836s0.767 1.116 0.558 0.139 0.209-1.254 0.489-1.742c0.278-0.488 0.766-1.186 1.393-2.231s1.046-0.558 1.812-0.484c0.767 0.076 0.976-0.074 1.533-0.004 0.556 0.070 0-0.697 0.21-1.463 0.208-0.766 0.975-0.628 1.743-0.418 0.766 0.209-0.768-0.977-1.046-1.604-0.28-0.628-1.046 0-1.532-1.045-0.492-1.045-1.177-1.722-1.804-1.815s0.2 1.328-0.288 2.094c-0.49 0.766-1.24 0.646-2.009 0.646-0.765 0-1.476-0.646-0.918-1.622 0.556-0.975 1.62-0.875 2.178-1.711s-1.982-0.759-2.889-1.037c-0.907-0.279-1.995-0.276-2.9 0.42s-2.845 0.914-3.612 1.192c-0.766 0.278-0.904-0.462-1.043-1.020-0.062-0.248-0.345-0.326-0.743-0.317-1.973 1.088-3.683 2.588-5.036 4.374 0.211 0.717 1.231-0.168 1.431-0.368 0.209-0.209 1.254 0.070 1.393 0.836s0.070 1.604-0.208 2.301c-0.279 0.696 0.697 1.672 1.254 2.648s1.185 0.976 1.464 0.976c0.278 0 1.882 0.628 1.812 1.394s1.464 1.463 2.092 1.951c0.628 0.49 1.024 0.971 1.838 1.111s1.768 1.473 2.186 1.613c0.321 0.107 0.864 0.62 1.192 0.779-0.431 0.546-1.266 1.667-1.266 2.183 0 0.699 0.911 1.796 1.26 2.075s1.348 0.489 1.556 1.185c0.21 0.697-0.146 3.043-0.772 3.669-0.629 0.627-0.858 2.108-0.858 2.108s0.221 0.481 0.963 0c0.82-0.531 2.192-2.042 2.74-2.371 1.045-0.628 2.061-1.391 3.037-2.296s0.622-1.54 1.111-2.444c0.488-0.906 1.119-0.865 1.955-1.629 0.837-0.768 0.252-0.616-0.654-0.965z"></path>
</symbol>
<symbol id="icon-f30f" viewBox="0 0 32 32">
<title>f30f</title>
<path fill="#88c9f9" style="fill: var(--color1, #88c9f9)" d="M32 16c0 8.837-7.163 16-16 16s-16-7.163-16-16c0-8.837 7.163-16 16-16s16 7.163 16 16z"></path>
<path fill="#5c913b" style="fill: var(--color2, #5c913b)" d="M2.5 22.556c-0.055-0.889-0.055-1.055-0.055-2.111s0.5-0.889 1-1.388 0.389-0.556 1.222-1.103 0.389-1.174 0.333-1.508-0.556-0.056-1.389 0.054-0.555-0.277-1.055-0.5-0.722-0.556-1.056-1.556-0.389-1.278-0.277-2.111 0.5-0.056 0.556 0.833 0.834 0.556 0.834 1.111 1.111 1.166 1.388 1.333 1.056-0.834 1.333-1.111 0.612-0.667 0.722-0.889 1.5-0.389 1.778-0.389 0.944 0.834 0.944 1.222 0.333 1.444 0.612 2.055 0.889 0.722 1.444 1.166 0.834 0.055 0.834 0.055-0.222-0.944-0.222-1.723 0.667-1.444 0.667-1.444 1.056 0.778 1.111 1 0.889 1 0.944 1.388 0.5 0.889 1.318 1 0.237-0.944 0.515-1.667 0.667-0.834 1.166-0.944 0.889-0.556 1.222-1 0.944-1.056 0.889-1.556-0.222-0.834-0.444-1.444 0.667-0.834 1.056-1.556 0 0 0.889-0.222 0.5-0.222 0.667-0.556 0.277-0.667 0.111-1.278-0.778 0-1.388 0 0.223-0.83 0.278-1.497 0.834-0.5 1.388-0.556 0.722 0.722 0.889 0.889 1.889-1.111 2.333-1.723-0.388-0.444-0.166-0.701-1.333-0.31-1.945-0.409-2.166-0.167-2.777-0.544-2.944-0.092-3.556 0.211-1-0.026-1.278-0.444-1.444-0.209-1.778-0.444-0.667 0.388-1.111 0.556-0.612 0.222-1.166-0.111 0.166-0.723-0.612-1c-0.521-0.186-1.145-0.077-2.116-0.099-5.083 2.68-8.551 8.009-8.551 14.154 0 3.040 0.863 5.871 2.335 8.291 0.274-0.46 0.205-1.082 0.164-1.735zM15.388 21.5c0.389 0.055 1.5 0 0.612-0.722s-1.388-0.167-1.278-1-0.556-0.834-0.556-0.834c0 0.612-0.444 1.278 0 1.889s0.834 0.611 1.222 0.667z"></path>
<path fill="#5c913b" style="fill: var(--color2, #5c913b)" d="M21.056 12.222c-0.889-0.722-0.222-0.5-0.111-1.333s-0.556-0.834-0.556-0.834c0 0.612-0.444 1.278 0 1.889s-0.889 1.111-0.5 1.166 2.055-0.166 1.166-0.888zM17.607 20.889c0.551 0.612 0.338 0 1.060-0.277s-0.612-0.889-1.056-1.222-0.886-0.346-1.275 0.389c-0.441 0.833 0.72 0.499 1.271 1.11zM24.111 22c-0.277-0.333-0.889-0.5-1.556-0.484s-0.612-0.738-1.278-0.683-1.143-0.448-1.444-0.604c-0.655-0.338-0.222 0.436 0 1.285s1.056 0.206 1.833 0.651 0.834-0.167 1.556 0.055 1 0.722 1.692 0.667-0.524-0.554-0.803-0.887zM22.667 24.444c-0.277-0.556-1.090-1.056-1.423-1.338s-0.855-0.377-1.3-0.213-0.722 0-0.944-0.44-0.612-0.286-0.944-0.231-1.667 0.612-2.444 1-1.132 0.726-1.642 1.222c-0.798 0.777-0.358 0.277 0 0.778s-0.393 2.055-0.448 2.944 1.424-0.277 1.98-0.389 0.392-0.444 0.836-0.778 0.733-0.412 1.221 0.033c0.488 0.444 1.127 0.856 1.127 1.356s1.759 1.333 2.426 1 1.056-1 1.667-1.556 0.389-1.611 0.556-2.277-0.39-0.555-0.668-1.11z"></path>
</symbol>
</defs>
</svg>
