<!-- Generated by IcoMoon.io -->
<svg version="1.1" xmlns="http://www.w3.org/2000/svg" width="32" height="32" viewBox="0 0 32 32">
<title>calendar</title>
<path d="M26.277 2.667h-20.555c-1.685 0-3.056 1.371-3.056 3.056v20.555c0 1.685 1.371 3.056 3.056 3.056h20.555c1.685 0 3.056-1.371 3.056-3.056v-20.555c0-1.685-1.371-3.056-3.056-3.056zM27.333 26.277c0 0.583-0.473 1.056-1.056 1.056h-20.555c-0.583 0-1.056-0.473-1.056-1.056v-17.72c0-0.583 0.472-1.053 1.053-1.056h20.56c0.581 0 1.053 0.473 1.053 1.053v17.725z"></path>
<path d="M11.089 11.667c0 0.946-0.767 1.713-1.713 1.713s-1.713-0.767-1.713-1.713c0-0.946 0.767-1.713 1.713-1.713s1.713 0.767 1.713 1.713z"></path>
<path d="M11.089 17.541c0 0.946-0.767 1.713-1.713 1.713s-1.713-0.767-1.713-1.713c0-0.946 0.767-1.713 1.713-1.713s1.713 0.767 1.713 1.713z"></path>
<path d="M24.337 11.667c0 0.946-0.767 1.713-1.713 1.713s-1.713-0.767-1.713-1.713c0-0.946 0.767-1.713 1.713-1.713s1.713 0.767 1.713 1.713z"></path>
<path d="M24.337 17.541c0 0.946-0.767 1.713-1.713 1.713s-1.713-0.767-1.713-1.713c0-0.946 0.767-1.713 1.713-1.713s1.713 0.767 1.713 1.713z"></path>
<path d="M17.713 11.667c0 0.946-0.767 1.713-1.713 1.713s-1.713-0.767-1.713-1.713c0-0.946 0.767-1.713 1.713-1.713s1.713 0.767 1.713 1.713z"></path>
<path d="M17.713 17.541c0 0.946-0.767 1.713-1.713 1.713s-1.713-0.767-1.713-1.713c0-0.946 0.767-1.713 1.713-1.713s1.713 0.767 1.713 1.713z"></path>
<path d="M11.089 23.315c0 0.946-0.767 1.713-1.713 1.713s-1.713-0.767-1.713-1.713c0-0.946 0.767-1.713 1.713-1.713s1.713 0.767 1.713 1.713z"></path>
<path d="M17.713 23.315c0 0.946-0.767 1.713-1.713 1.713s-1.713-0.767-1.713-1.713c0-0.946 0.767-1.713 1.713-1.713s1.713 0.767 1.713 1.713z"></path>
</svg>
