<!-- Generated by IcoMoon.io -->
<svg version="1.1" xmlns="http://www.w3.org/2000/svg" width="32" height="32" viewBox="0 0 32 32">
<title>f30d</title>
<path fill="#88c9f9" d="M32 16c0 8.837-7.163 16-16 16s-16-7.163-16-16c0-8.837 7.163-16 16-16s16 7.163 16 16z"></path>
<path fill="#5c913b" d="M22.859 1.561c-0.908 0.505-1.664 1.358-2.692 1.050-1.667-0.5-3.889-1.611-5.333-0.222s-1.778 2.667 0 2.612 3-2.167 3.889-1.278 0.666 1.612-1.444 1.889-4.389 0.612-5.612 0.612-1.5 0.722-0.667 1.5-0.5 0.833-1.889 1.611 0.333 1.111 1.5 1.778 2.055-0.167 2.556-1.278 2.65-2.444 3.547-2.277c0.898 0.167 0.898 0.612 0.731 1.388s0.667 0.556 0.722-0.333 1.056-1.556 1.833-1.611 1.444 1.056 0.556 1.611-1.778 1-0.667 1.278 1.889 1.723 0.612 2.333-3.5 1-4.5 0.5-3.278-1.222-3.889-0.834-0.944 0.791-1.667 1.062c-0.722 0.271-3.667 1.604-3.723 3.327s-0.11 3.668 1.056 3.723 4-0.722 4.889-1.444 2.111-0.556 2.5 0.277 0.111 1.333-0.277 2.667 0.254 2 0.877 3.166c0.623 1.166 1.123 1.833 1.123 2.667s0.889 1.667 2.222 0.277 2.556-4.111 3.111-5.111 1-3.222 1.667-3.667 1.723-1.5 0.944-1.333-2.333-0.055-2.722-1.166-2.055-3.222-1.278-3.444 1.667 1.236 2 1.924c0.333 0.688 0.778 1.521 1.444 1.743s2.111-1.487 2.556-1.743c0.444-0.257 0.111-1.312-0.778-1.201s-2.055 0-2.055-0.555 1.111-1.278 2-1.111 1.556 0.444 2.111 1.111 1.667 1.889 2.111 2.667 0.778 0.889 1-0.5c0.148-0.923 0.344-1.43 0.524-1.975-0.9-5.181-4.284-9.496-8.888-11.687z"></path>
</svg>
