<!-- Generated by IcoMoon.io -->
<svg version="1.1" xmlns="http://www.w3.org/2000/svg" width="32" height="32" viewBox="0 0 32 32">
<title>f30e</title>
<path fill="#88c9f9" d="M32 16c0 8.837-7.163 16-16 16s-16-7.163-16-16c0-8.837 7.163-16 16-16s16 7.163 16 16z"></path>
<path fill="#5c913b" d="M26.782 21.109c-0.904-0.347-0.743-0.22-1.3-1.405s-0.895-1.565-2.148-1.704c-1.254-0.138-1.207-0.040-1.556-0.667s-1.762 0.17-2.667 0.519c-0.908 0.348-0.684 1.108-0.963 1.036-0.28-0.069-0.984-0.25-1.683-0.806-0.697-0.558 0.518-0.994 0.868-1.341 0.349-0.349-0.658-0.159-1.007-0.37-0.349-0.208-0.974 0.419-1.532-0.14-0.558-0.557-0.209-1.394-0.278-2.091s0.905-0.836 1.532-0.976c0.627-0.139 1.114 0.001 1.114 0.836s0.767 1.116 0.558 0.139 0.209-1.254 0.489-1.742c0.278-0.488 0.766-1.186 1.393-2.231s1.046-0.558 1.812-0.484c0.767 0.076 0.976-0.074 1.533-0.004 0.556 0.070 0-0.697 0.21-1.463 0.208-0.766 0.975-0.628 1.743-0.418 0.766 0.209-0.768-0.977-1.046-1.604-0.28-0.628-1.046 0-1.532-1.045-0.492-1.045-1.177-1.722-1.804-1.815s0.2 1.328-0.288 2.094c-0.49 0.766-1.24 0.646-2.009 0.646-0.765 0-1.476-0.646-0.918-1.622 0.556-0.975 1.62-0.875 2.178-1.711s-1.982-0.759-2.889-1.037c-0.907-0.279-1.995-0.276-2.9 0.42s-2.845 0.914-3.612 1.192c-0.766 0.278-0.904-0.462-1.043-1.020-0.062-0.248-0.345-0.326-0.743-0.317-1.973 1.088-3.683 2.588-5.036 4.374 0.211 0.717 1.231-0.168 1.431-0.368 0.209-0.209 1.254 0.070 1.393 0.836s0.070 1.604-0.208 2.301c-0.279 0.696 0.697 1.672 1.254 2.648s1.185 0.976 1.464 0.976c0.278 0 1.882 0.628 1.812 1.394s1.464 1.463 2.092 1.951c0.628 0.49 1.024 0.971 1.838 1.111s1.768 1.473 2.186 1.613c0.321 0.107 0.864 0.62 1.192 0.779-0.431 0.546-1.266 1.667-1.266 2.183 0 0.699 0.911 1.796 1.26 2.075s1.348 0.489 1.556 1.185c0.21 0.697-0.146 3.043-0.772 3.669-0.629 0.627-0.858 2.108-0.858 2.108s0.221 0.481 0.963 0c0.82-0.531 2.192-2.042 2.74-2.371 1.045-0.628 2.061-1.391 3.037-2.296s0.622-1.54 1.111-2.444c0.488-0.906 1.119-0.865 1.955-1.629 0.837-0.768 0.252-0.616-0.654-0.965z"></path>
</svg>
