<!-- Generated by IcoMoon.io -->
<svg version="1.1" xmlns="http://www.w3.org/2000/svg" width="32" height="32" viewBox="0 0 32 32">
<title>f30f</title>
<path fill="#88c9f9" d="M32 16c0 8.837-7.163 16-16 16s-16-7.163-16-16c0-8.837 7.163-16 16-16s16 7.163 16 16z"></path>
<path fill="#5c913b" d="M2.5 22.556c-0.055-0.889-0.055-1.055-0.055-2.111s0.5-0.889 1-1.388 0.389-0.556 1.222-1.103 0.389-1.174 0.333-1.508-0.556-0.056-1.389 0.054-0.555-0.277-1.055-0.5-0.722-0.556-1.056-1.556-0.389-1.278-0.277-2.111 0.5-0.056 0.556 0.833 0.834 0.556 0.834 1.111 1.111 1.166 1.388 1.333 1.056-0.834 1.333-1.111 0.612-0.667 0.722-0.889 1.5-0.389 1.778-0.389 0.944 0.834 0.944 1.222 0.333 1.444 0.612 2.055 0.889 0.722 1.444 1.166 0.834 0.055 0.834 0.055-0.222-0.944-0.222-1.723 0.667-1.444 0.667-1.444 1.056 0.778 1.111 1 0.889 1 0.944 1.388 0.5 0.889 1.318 1 0.237-0.944 0.515-1.667 0.667-0.834 1.166-0.944 0.889-0.556 1.222-1 0.944-1.056 0.889-1.556-0.222-0.834-0.444-1.444 0.667-0.834 1.056-1.556 0 0 0.889-0.222 0.5-0.222 0.667-0.556 0.277-0.667 0.111-1.278-0.778 0-1.388 0 0.223-0.83 0.278-1.497 0.834-0.5 1.388-0.556 0.722 0.722 0.889 0.889 1.889-1.111 2.333-1.723-0.388-0.444-0.166-0.701-1.333-0.31-1.945-0.409-2.166-0.167-2.777-0.544-2.944-0.092-3.556 0.211-1-0.026-1.278-0.444-1.444-0.209-1.778-0.444-0.667 0.388-1.111 0.556-0.612 0.222-1.166-0.111 0.166-0.723-0.612-1c-0.521-0.186-1.145-0.077-2.116-0.099-5.083 2.68-8.551 8.009-8.551 14.154 0 3.040 0.863 5.871 2.335 8.291 0.274-0.46 0.205-1.082 0.164-1.735zM15.388 21.5c0.389 0.055 1.5 0 0.612-0.722s-1.388-0.167-1.278-1-0.556-0.834-0.556-0.834c0 0.612-0.444 1.278 0 1.889s0.834 0.611 1.222 0.667z"></path>
<path fill="#5c913b" d="M21.056 12.222c-0.889-0.722-0.222-0.5-0.111-1.333s-0.556-0.834-0.556-0.834c0 0.612-0.444 1.278 0 1.889s-0.889 1.111-0.5 1.166 2.055-0.166 1.166-0.888zM17.607 20.889c0.551 0.612 0.338 0 1.060-0.277s-0.612-0.889-1.056-1.222-0.886-0.346-1.275 0.389c-0.441 0.833 0.72 0.499 1.271 1.11zM24.111 22c-0.277-0.333-0.889-0.5-1.556-0.484s-0.612-0.738-1.278-0.683-1.143-0.448-1.444-0.604c-0.655-0.338-0.222 0.436 0 1.285s1.056 0.206 1.833 0.651 0.834-0.167 1.556 0.055 1 0.722 1.692 0.667-0.524-0.554-0.803-0.887zM22.667 24.444c-0.277-0.556-1.090-1.056-1.423-1.338s-0.855-0.377-1.3-0.213-0.722 0-0.944-0.44-0.612-0.286-0.944-0.231-1.667 0.612-2.444 1-1.132 0.726-1.642 1.222c-0.798 0.777-0.358 0.277 0 0.778s-0.393 2.055-0.448 2.944 1.424-0.277 1.98-0.389 0.392-0.444 0.836-0.778 0.733-0.412 1.221 0.033c0.488 0.444 1.127 0.856 1.127 1.356s1.759 1.333 2.426 1 1.056-1 1.667-1.556 0.389-1.611 0.556-2.277-0.39-0.555-0.668-1.11z"></path>
</svg>
