<!-- Generated by IcoMoon.io -->
<svg version="1.1" xmlns="http://www.w3.org/2000/svg" width="32" height="32" viewBox="0 0 32 32">
<title>globe</title>
<path d="M10.333 14.777c-0.552 0-1-0.448-1-1 0-3.92 2.991-7.111 6.667-7.111 0.552 0 1 0.448 1 1s-0.448 1-1 1c-2.573 0-4.667 2.293-4.667 5.111 0 0.552-0.448 1-1 1z"></path>
<path d="M27.667 13.777c0-6.68-5.233-12.111-11.667-12.111s-11.667 5.432-11.667 12.111c0 6.14 4.427 11.216 10.14 11.996l-2.267 2.44c-0.183 0.193-0.231 0.476-0.124 0.72 0.107 0.243 0.347 0.4 0.613 0.4h6.609c0.264 0 0.504-0.157 0.609-0.4 0.107-0.244 0.059-0.527-0.123-0.72l-2.267-2.44c5.713-0.78 10.14-5.856 10.14-11.996zM16 23.889c-5.331 0-9.667-4.536-9.667-10.112s4.336-10.111 9.667-10.111 9.667 4.533 9.667 10.111-4.336 10.112-9.667 10.112z"></path>
</svg>
