<!-- Generated by IcoMoon.io -->
<svg version="1.1" xmlns="http://www.w3.org/2000/svg" width="32" height="32" viewBox="0 0 32 32">
<title>more</title>
<path d="M25.853 19.843c-2.107 0-3.816-1.711-3.816-3.813s1.711-3.816 3.813-3.816 3.816 1.711 3.816 3.813-1.712 3.816-3.813 3.816zM25.853 14.212c-1 0-1.816 0.813-1.816 1.813s0.813 1.813 1.813 1.813 1.816-0.813 1.816-1.813-0.813-1.813-1.813-1.813zM16 19.843c-2.104 0-3.813-1.711-3.813-3.813s1.707-3.819 3.813-3.819 3.813 1.709 3.813 3.813-1.709 3.816-3.813 3.816zM16 14.212c-1 0-1.813 0.813-1.813 1.813s0.813 1.816 1.813 1.816 1.813-0.813 1.813-1.813-0.813-1.817-1.813-1.817zM6.147 19.843c-2.103 0-3.813-1.711-3.813-3.813s1.712-3.816 3.813-3.816 3.816 1.711 3.816 3.813-1.711 3.816-3.813 3.816zM6.147 14.212c-1 0-1.813 0.813-1.813 1.813s0.813 1.813 1.813 1.813 1.816-0.813 1.816-1.813-0.813-1.813-1.813-1.813z"></path>
</svg>
