<!-- Generated by IcoMoon.io -->
<svg version="1.1" xmlns="http://www.w3.org/2000/svg" width="32" height="32" viewBox="0 0 32 32">
<title>pin</title>
<path d="M26.98 19.48c-0.5-2.327-3.123-4.675-5.347-5.5l-0.725-6.597 1.993-2.989c0.209-0.315 0.229-0.717 0.049-1.049-0.179-0.333-0.523-0.537-0.9-0.537h-12.187c-0.379 0-0.723 0.205-0.901 0.537-0.179 0.333-0.16 0.737 0.051 1.051l1.997 2.996-0.645 6.591c-2.224 0.827-4.844 3.173-5.339 5.488-0.053 0.213-0.021 0.539 0.176 0.792 0.137 0.176 0.405 0.387 0.907 0.387h5.411l3.872 8.949c0.104 0.245 0.347 0.403 0.611 0.403s0.507-0.157 0.613-0.403l3.871-8.951h5.409c0.501 0 0.768-0.208 0.907-0.381 0.195-0.251 0.229-0.579 0.18-0.787z"></path>
</svg>
