<!-- Generated by IcoMoon.io -->
<svg version="1.1" xmlns="http://www.w3.org/2000/svg" width="32" height="32" viewBox="0 0 32 32">
<title>search</title>
<path d="M28.707 27.293l-4.88-4.88c1.767-2.093 2.84-4.795 2.84-7.747 0-6.627-5.373-12-12-12s-12 5.373-12 12 5.373 12 12 12c2.953 0 5.653-1.072 7.744-2.84l4.88 4.88c0.196 0.195 0.453 0.293 0.707 0.293s0.513-0.097 0.707-0.293c0.393-0.391 0.393-1.023 0.003-1.413zM4.667 14.667c0-5.513 4.487-10 10-10s10 4.487 10 10-4.487 10-10 10-10-4.487-10-10z"></path>
</svg>
