<!-- Generated by IcoMoon.io -->
<svg version="1.1" xmlns="http://www.w3.org/2000/svg" width="32" height="32" viewBox="0 0 32 32">
<title>twitter</title>
<path d="M31.524 6.583c-1.113 0.493-2.309 0.827-3.567 0.977 1.283-0.768 2.267-1.987 2.731-3.437-1.2 0.712-2.529 1.229-3.944 1.507-1.133-1.205-2.747-1.96-4.533-1.96-3.429 0-6.211 2.781-6.211 6.213 0 0.485 0.056 0.957 0.16 1.413-5.164-0.26-9.739-2.733-12.803-6.491-0.533 0.92-0.84 1.987-0.84 3.123 0 2.155 1.097 4.057 2.763 5.171-1.019-0.033-1.976-0.312-2.813-0.777v0.080c0 3.009 2.14 5.52 4.983 6.091-0.523 0.141-1.071 0.216-1.636 0.216-0.4 0-0.791-0.037-1.169-0.109 0.791 2.467 3.084 4.264 5.803 4.312-2.127 1.667-4.805 2.66-7.715 2.66-0.501 0-0.996-0.029-1.483-0.087 2.749 1.764 6.013 2.791 9.52 2.791 11.427 0 17.673-9.464 17.673-17.672 0-0.267-0.007-0.536-0.019-0.803 1.213-0.877 2.267-1.969 3.097-3.213z"></path>
</svg>
