<!-- Generated by IcoMoon.io -->
<svg version="1.1" xmlns="http://www.w3.org/2000/svg" width="32" height="32" viewBox="0 0 32 32">
<title>verified</title>
<path d="M30 16.667c0-2.107-1.167-3.933-2.864-4.8 0.205-0.58 0.317-1.207 0.317-1.867 0-2.947-2.28-5.331-5.091-5.331-0.627 0-1.227 0.112-1.781 0.333-0.824-1.783-2.568-3.003-4.581-3.003s-3.755 1.223-4.583 3c-0.553-0.22-1.155-0.333-1.781-0.333-2.813 0-5.091 2.387-5.091 5.333 0 0.659 0.111 1.285 0.316 1.867-1.696 0.867-2.863 2.691-2.863 4.8 0 1.993 1.043 3.731 2.589 4.648-0.027 0.227-0.043 0.453-0.043 0.685 0 2.947 2.277 5.333 5.091 5.333 0.627 0 1.227-0.115 1.78-0.333 0.827 1.779 2.568 3 4.583 3 2.016 0 3.757-1.221 4.583-3 0.553 0.217 1.153 0.331 1.781 0.331 2.813 0 5.091-2.387 5.091-5.333 0-0.232-0.016-0.459-0.044-0.684 1.544-0.916 2.591-2.653 2.591-4.645zM21.179 12.221l-5.779 8.667c-0.193 0.289-0.509 0.445-0.833 0.445-0.191 0-0.384-0.053-0.555-0.168l-0.153-0.125-3.22-3.22c-0.391-0.391-0.391-1.024 0-1.413s1.024-0.392 1.413 0l2.36 2.356 5.1-7.653c0.307-0.46 0.928-0.581 1.387-0.276 0.461 0.307 0.587 0.928 0.28 1.387z"></path>
</svg>
